<?xml version="1.0" standalone="no"?>
<!DOCTYPE svg PUBLIC "-//W3C//DTD SVG 20010904//EN"
 "http://www.w3.org/TR/2001/REC-SVG-20010904/DTD/svg10.dtd">
<svg version="1.0" xmlns="http://www.w3.org/2000/svg"
 width="360.000000pt" height="327.000000pt" viewBox="0 0 360.000000 327.000000"
 preserveAspectRatio="xMidYMid meet">

<g transform="translate(0.000000,327.000000) scale(0.100000,-0.100000)"
fill="#000000" stroke="none">
<path d="M2165 3021 c18 -21 18 -24 3 -18 -25 9 -22 0 10 -29 15 -13 20 -22
11 -19 -9 3 -21 0 -27 -8 -9 -10 -7 -18 8 -35 18 -19 18 -22 4 -37 -10 -9 -24
-13 -38 -10 -15 5 -17 4 -7 -3 11 -8 11 -10 0 -15 -11 -4 -10 -6 2 -6 8 -1 20
4 25 9 7 7 11 6 11 -4 0 -16 -41 -31 -57 -21 -6 3 -7 -1 -4 -9 3 -9 7 -16 9
-16 9 0 164 65 179 76 18 13 18 15 -18 48 -23 20 -44 32 -53 29 -12 -5 -14 -1
-9 15 4 11 2 23 -4 27 -5 3 -10 1 -10 -4 0 -6 -4 -11 -10 -11 -5 0 -7 6 -4 13
2 7 -6 22 -18 33 l-23 19 20 -24z m55 -101 c0 -5 -4 -10 -10 -10 -5 0 -10 5
-10 10 0 6 5 10 10 10 6 0 10 -4 10 -10z m30 -30 c0 -5 -2 -10 -4 -10 -3 0 -8
5 -11 10 -3 6 -1 10 4 10 6 0 11 -4 11 -10z"/>
<path d="M2080 2800 c0 -5 5 -10 11 -10 5 0 7 5 4 10 -3 6 -8 10 -11 10 -2 0
-4 -4 -4 -10z"/>
<path d="M2505 2544 c-41 -21 -146 -125 -138 -137 3 -6 1 -7 -4 -4 -13 8 -40
-21 -45 -48 -1 -11 -7 -23 -13 -27 -6 -5 -5 -8 3 -8 6 0 12 -5 12 -11 0 -5 -5
-7 -11 -3 -8 5 -8 1 0 -13 6 -11 8 -23 4 -26 -3 -4 0 -13 7 -22 11 -13 10 -14
-6 -8 -40 15 5 -23 61 -51 30 -16 55 -32 55 -37 0 -13 -3 -12 -66 17 -31 14
-59 23 -62 19 -3 -3 41 -54 99 -113 173 -176 220 -233 255 -307 65 -135 66
-252 4 -380 -35 -72 -72 -118 -250 -306 -74 -78 -126 -139 -116 -136 16 6 17
5 6 -8 -11 -13 -7 -15 31 -15 24 0 71 5 104 11 110 19 131 19 60 0 -38 -11
-87 -20 -107 -20 -20 -1 -48 -5 -62 -11 -14 -5 -41 -10 -60 -12 -30 -2 -33 -4
-25 -20 6 -10 15 -15 21 -12 7 4 8 3 4 -4 -9 -14 211 -238 247 -251 44 -17 99
-13 137 10 39 24 265 249 627 626 341 355 339 321 36 640 -290 307 -609 626
-652 654 -51 33 -109 38 -156 13z m-10 -419 c39 -17 21 -18 -25 0 -19 7 -28
14 -20 14 8 0 29 -6 45 -14z m120 -1165 c-11 -5 -27 -9 -35 -9 -9 0 -8 4 5 9
11 5 27 9 35 9 9 0 8 -4 -5 -9z"/>
<path d="M1932 1958 c-7 -7 -12 -17 -12 -22 0 -6 5 -4 10 4 8 13 10 13 10 -2
0 -9 -8 -22 -17 -27 -15 -9 -16 -10 -2 -11 12 0 14 -8 11 -30 -4 -25 -1 -30
17 -30 11 0 21 -4 21 -10 0 -5 -43 -11 -97 -12 -90 -3 -98 -5 -109 -25 -6 -13
-14 -20 -19 -15 -4 4 -5 -1 -2 -11 5 -13 2 -17 -11 -15 -15 3 -17 -11 -20
-147 -1 -82 0 -165 3 -183 5 -29 8 -32 22 -21 8 7 21 14 29 15 8 1 36 16 64
33 28 17 54 31 58 31 4 0 13 5 20 12 6 6 28 17 48 24 l36 12 -4 -115 -3 -116
-27 -9 c-23 -8 -28 -16 -28 -42 0 -37 32 -70 59 -61 27 8 101 93 95 109 -3 8
0 17 5 21 6 3 9 11 5 16 -3 5 -2 9 3 8 22 -4 43 2 38 11 -3 6 -1 10 6 10 14 0
69 59 69 74 0 6 4 5 8 -2 6 -9 25 4 65 47 67 70 73 100 30 153 -15 18 -94 102
-177 186 -149 150 -175 169 -204 140z m-145 -183 c-7 -14 -15 -25 -19 -25 -11
0 -10 7 4 30 18 28 28 25 15 -5z m-60 -47 c-3 -8 -6 -5 -6 6 -1 11 2 17 5 13
3 -3 4 -12 1 -19z m336 -425 c-7 -2 -19 -2 -25 0 -7 3 -2 5 12 5 14 0 19 -2
13 -5z m-108 -73 c3 -5 1 -10 -4 -10 -6 0 -11 5 -11 10 0 6 2 10 4 10 3 0 8
-4 11 -10z"/>
<path d="M1625 430 c-3 -5 -1 -10 4 -10 6 0 11 5 11 10 0 6 -2 10 -4 10 -3 0
-8 -4 -11 -10z"/>
<path d="M1908 313 c6 -2 18 -2 25 0 6 3 1 5 -13 5 -14 0 -19 -2 -12 -5z"/>
<path d="M1975 301 c-3 -6 -9 -9 -13 -7 -10 6 -9 -216 1 -231 5 -9 2 -13 -10
-14 -13 0 -12 -3 7 -10 64 -26 136 12 278 148 70 68 86 96 59 106 -7 3 -75 6
-150 6 -76 1 -144 4 -151 7 -8 3 -17 0 -21 -5z"/>
</g>
</svg>
